<svg width="334" height="334" viewBox="0 0 334 334" fill="none" xmlns="http://www.w3.org/2000/svg">
<g opacity="0.24">
<path d="M132.395 85.6286C105.678 86.5425 84.1527 84.6337 68.8437 83.2654L68.3482 83.2211C61.0145 82.5654 54.7718 82.0072 50.2345 82.0413C47.9484 82.0584 45.5694 82.2194 43.5094 82.825C41.5129 83.4119 38.3681 84.8784 37.1692 88.5226C36.8923 89.3643 36.7765 90.26 36.7173 90.7535C36.6408 91.3921 36.5776 92.1383 36.5233 92.9494C36.4142 94.5797 36.326 96.7025 36.2559 99.2097C36.1152 104.237 36.0414 111.014 36.0347 118.914C36.0213 134.724 36.2766 155.17 36.8165 175.4C37.3561 195.613 38.182 215.696 39.3166 230.748C39.8816 238.245 40.5344 244.651 41.2943 249.243C41.6662 251.49 42.1088 253.591 42.6781 255.239C42.9476 256.019 43.3788 257.101 44.0906 258.099C44.6596 258.897 46.5697 261.239 49.9812 261.099C50.3164 261.086 50.6499 261.044 50.9784 260.976C59.4477 259.218 78.4232 257.895 102.807 256.756C118.943 256.003 137.136 255.34 155.714 254.663C164.967 254.326 174.316 253.985 183.554 253.628C211.266 252.557 237.98 251.338 257.761 249.621C267.615 248.766 275.969 247.769 281.927 246.558C284.85 245.964 287.561 245.248 289.66 244.313C290.688 243.855 291.961 243.176 293.054 242.141C294.186 241.07 295.623 239.104 295.51 236.334C295.411 233.917 295.196 226.436 294.895 215.959C294.444 200.275 293.801 177.877 293.065 155.704C292.453 137.264 291.778 119.018 291.101 105.064C290.763 98.0941 290.422 92.1481 290.084 87.7683C289.916 85.5871 289.744 83.7263 289.565 82.295C289.477 81.5854 289.377 80.903 289.261 80.3037L289.258 80.2887C289.182 79.8977 288.979 78.8504 288.48 77.8613C287.728 76.3741 286.606 75.5589 285.983 75.1778C285.312 74.7665 284.672 74.5265 284.229 74.3843C283.343 74.0994 282.423 73.9481 281.661 73.8534C280.085 73.6573 278.088 73.577 275.878 73.5614C271.401 73.5298 265.27 73.7637 258.139 74.1726C243.839 74.9927 225.062 76.5445 206.43 78.243C187.782 79.9428 169.218 81.7953 155.32 83.2223C148.37 83.9359 142.584 84.5434 138.535 84.9725C136.51 85.1871 134.92 85.3571 133.835 85.4735C133.293 85.5317 132.877 85.5766 132.596 85.6068L132.395 85.6286Z" stroke="black" stroke-width="12.2848" stroke-linecap="round" stroke-linejoin="round"/>
<path d="M45.5283 222.375C52.0733 222.375 65.1167 213.996 82.7433 207.135C97.4342 201.417 117.259 197.008 120.936 197.008C129.024 197.008 161.015 214.192 170.54 214.192C180.064 214.192 218.208 163.772 232.098 150.952C249.957 155.316 282.59 192.536 294.786 192.536" stroke="black" stroke-width="12.2848" stroke-linecap="round" stroke-linejoin="round"/>
<path d="M122.912 147.336C113.517 163.607 94.3218 168.119 78.0506 158.725C61.7794 149.331 57.7705 136.152 62.5704 120.949C68.5015 102.163 93.6439 94.1399 109.915 103.534C126.186 112.928 132.306 131.065 122.912 147.336Z" fill="black"/>
</g>
</svg>