
<svg width="50" height="52" viewBox="0 0 50 52" fill="none" xmlns="http://www.w3.org/2000/svg">
<path d="M8.22253 49.2968C9.63402 40.9208 13.3359 31.8239 23.2163 31.8239M23.2163 31.8239C33.0967 31.8239 40.1541 35.1743 41.5656 48.5759C41.3427 49.0565 40.7098 49.8736 39.9617 49.2968C39.0265 48.5759 38.8507 31.8239 23.2163 31.8239Z" stroke="black" stroke-width="4.60681" stroke-miterlimit="10" stroke-linecap="round" stroke-linejoin="round"/>
<path d="M21.9256 10.9376C19.4024 11.9734 17.7539 13.8495 16.9972 16.1097C16.261 18.3086 16.4101 20.726 17.1407 22.9386C17.9677 25.4434 19.9029 27.4171 22.0447 28.476C24.154 29.5187 26.9743 29.8858 29.2827 28.2525C30.983 27.0495 32.1265 25.6195 32.7215 23.885C33.2958 22.2108 33.2822 20.4694 33.0828 18.78C32.8217 16.5688 31.4266 14.1935 29.6104 12.5905C27.7699 10.966 24.9464 9.69756 21.9256 10.9376Z" stroke="black" stroke-width="4.60681" stroke-miterlimit="10" stroke-linecap="round" stroke-linejoin="round"/>
</svg>
